<svg width="329" height="73" viewBox="0 0 329 73" fill="none" xmlns="http://www.w3.org/2000/svg">
<path d="M176.92 13.5267C177.28 13.4876 177.643 13.4876 178.003 13.5267C179.014 13.7803 179.986 14.169 180.892 14.6823C182.59 15.513 183.42 16.1269 183.42 16.5964C183.413 16.9528 183.314 17.3013 183.131 17.6077C182.3 18.4169 181.712 19.4428 181.434 20.5691C181.057 24.7889 180.381 28.9767 179.412 33.101C179.007 35.0419 178.221 36.8831 177.1 38.5183C176.513 39.3822 175.734 40.099 174.825 40.6129C174.326 40.9884 173.744 41.2364 173.128 41.3352C172.73 41.3352 172.441 41.1185 172.261 40.6129C171.519 38.7542 170.509 37.0142 169.263 35.4485C169.047 35.4485 168.938 35.1234 168.938 35.0512V34.8706C170.313 35.2659 171.712 35.5676 173.128 35.7735C173.874 35.7735 174.596 34.6901 175.294 32.5232C176.1 29.7738 176.656 26.9575 176.956 24.1084C177.26 22.4741 177.453 20.8211 177.534 19.1606C177.534 18.1133 176.811 17.5715 175.439 17.5715C173.508 17.5695 171.579 17.678 169.661 17.8966C169.033 20.5221 168.2 23.0942 167.169 25.5891C165.781 28.8071 163.905 31.7916 161.607 34.4373C159.682 36.5164 157.378 38.2081 154.817 39.4211C153.797 39.8548 152.71 40.1113 151.603 40.1795C151.242 40.1795 151.061 40.1795 151.061 40.1795C152.588 39.0637 154.048 37.8578 155.431 36.568C158.011 34.144 160.193 31.3286 161.896 28.2255C163.403 25.411 164.497 22.3947 165.146 19.269C165.136 19.1488 165.136 19.028 165.146 18.9078L160.596 19.9551C160.003 20.0956 159.398 20.1803 158.79 20.2079C158.329 20.2012 157.875 20.0905 157.462 19.8842C157.049 19.6779 156.689 19.3812 156.406 19.0161C156.079 18.5351 155.891 17.9724 155.865 17.391C155.865 16.9576 155.865 16.7048 156.406 16.7048C158.393 16.7048 161.607 16.3436 166.049 15.8019C166.48 13.3333 166.698 10.8321 166.699 8.32611C166.651 7.40227 166.338 6.51189 165.796 5.76194C165.796 5.25633 166.157 5.00353 166.88 5.00353C167.853 4.9883 168.809 5.26504 169.624 5.79806C171.502 6.59259 172.441 7.27877 172.441 7.8205C172.431 8.2066 172.345 8.58693 172.189 8.94006C171.575 9.70858 171.154 10.6124 170.961 11.5765C170.708 12.9127 170.455 14.1406 170.238 15.188C172.511 14.8387 174.748 14.2826 176.92 13.5267Z" fill="#231815"/>
<path d="M220.872 12.4792C220.872 12.2625 220.872 12.1542 220.872 12.1542C221.232 12.1207 221.595 12.1207 221.955 12.1542C222.711 12.272 223.45 12.4781 224.158 12.7681C224.326 12.851 224.465 12.9801 224.561 13.1402C224.658 13.3002 224.706 13.4845 224.7 13.671C224.693 14.0941 224.568 14.5069 224.339 14.8628C224.218 15.019 224.065 15.148 223.891 15.2413C223.717 15.3346 223.525 15.3902 223.328 15.4045C223.208 15.3956 223.092 15.3622 222.987 15.3062C222.881 15.2503 222.788 15.1731 222.714 15.0795C222.016 14.3661 221.399 13.579 220.872 12.732C220.859 12.6483 220.859 12.563 220.872 12.4792ZM220.15 25.3362C220.15 26.0224 219.824 26.6724 219.68 27.2141C220.084 27.168 220.484 27.0834 220.872 26.9613C221.268 26.9126 221.668 26.9126 222.064 26.9613C222.32 26.9663 222.573 27.0271 222.803 27.1393C223.034 27.2516 223.238 27.4127 223.4 27.6114L223.617 26.8169C223.834 26.2696 223.991 25.7005 224.086 25.1195C224.086 24.6861 223.797 24.4694 223.183 24.4694L220.475 24.7583L220.15 25.3362ZM224.989 4.49781C225.289 4.46004 225.592 4.46004 225.892 4.49781C227.734 4.49781 228.637 5.07565 228.637 6.23133C228.637 6.23133 228.637 6.52025 228.239 6.59248C226.542 6.91751 224.917 7.1342 223.4 7.31478C222.601 7.47393 221.793 7.58249 220.98 7.63981C220.207 7.66313 219.44 7.5022 218.741 7.17032C218.163 6.91751 217.874 6.62859 217.874 6.4119C217.874 6.19521 217.874 5.79795 218.235 5.72572C220.872 5.25622 223.039 4.89507 225.097 4.49781H224.989ZM216.971 30.2839C216.971 30.0311 216.971 29.9228 217.26 29.9228C218.102 29.918 218.936 30.0774 219.716 30.3923C220.763 30.7173 221.269 31.0785 221.269 31.4396C220.972 31.7176 220.749 32.0651 220.619 32.4508L220.402 33.8954C221.161 33.4982 221.811 33.0648 222.425 32.6675C223.37 32.0025 224.21 31.199 224.917 30.2839C225.006 30.169 225.122 30.0765 225.253 30.0138C225.385 29.9511 225.529 29.92 225.675 29.9228C226.349 30.0348 226.99 30.2937 227.553 30.6812C228.348 31.1507 228.745 31.6202 228.745 32.0174C228.745 32.4147 228.42 32.4869 227.77 32.6675C226.398 32.966 225.047 33.352 223.725 33.8232L220.33 34.8344C220.33 35.4484 220.33 35.9901 220.33 36.4957C220.318 36.9347 220.418 37.3695 220.619 37.7597C220.744 37.9561 220.907 38.1248 221.1 38.2552C221.293 38.3857 221.51 38.4752 221.739 38.5181C222.912 38.8571 224.129 39.0154 225.35 38.9876C226.739 39.0278 228.123 38.8073 229.431 38.3376C230.126 38.053 230.683 37.509 230.984 36.8207C231.278 35.9691 231.46 35.0829 231.526 34.1843C231.526 34.0038 231.526 33.9315 231.526 33.9315C231.526 33.9315 231.526 33.9315 231.815 34.2927C232.13 35.5738 232.655 36.794 233.368 37.9042C233.486 38.0759 233.561 38.2745 233.584 38.482C233.582 38.7942 233.481 39.0976 233.295 39.3488C232.671 40.261 231.809 40.9853 230.803 41.4435C229.169 42.072 227.425 42.3667 225.675 42.3102C223.749 42.3785 221.824 42.147 219.969 41.624C219.389 41.4455 218.863 41.1236 218.44 40.6881C218.017 40.2525 217.711 39.7174 217.549 39.1321C217.278 38.2434 217.156 37.3159 217.188 36.3874V32.4869C217.262 31.7455 217.189 30.9967 216.971 30.2839ZM216.069 9.73449C216.069 9.5178 216.43 9.40945 217.152 9.40945C217.674 9.42798 218.193 9.48837 218.705 9.59003C218.928 9.64206 219.137 9.74051 219.319 9.87894C220.108 9.84829 220.893 9.75164 221.666 9.59003C223.063 9.2164 224.427 8.73337 225.747 8.14542C226.089 7.98084 226.455 7.87115 226.831 7.82039C227.65 8.00471 228.448 8.2709 229.214 8.61492C230.406 9.33722 231.02 9.91506 231.02 10.4207C231.02 10.9263 231.02 10.7457 230.478 10.9624C229.89 11.3056 229.423 11.823 229.142 12.4431C228.859 13.9106 228.268 15.3015 227.409 16.5241C227.313 16.673 227.186 16.7989 227.036 16.8926C226.886 16.9863 226.717 17.0455 226.542 17.0658C226.289 17.0658 226.109 17.0658 225.928 16.6325C225.747 16.1991 225.928 15.7657 225.928 15.6573C225.998 14.9657 226.107 14.2785 226.253 13.5988C226.417 12.9089 226.538 12.2092 226.614 11.5041C226.614 10.9985 226.325 10.7457 225.747 10.7457C222.569 11.143 220.619 11.3235 219.969 11.3235L220.33 15.2962C220.33 16.0907 219.933 16.488 219.391 16.488C219.028 16.4621 218.691 16.2933 218.452 16.0185C218.227 15.8364 218.074 15.5805 218.019 15.2962C217.633 14.4107 217.378 13.474 217.26 12.5153C217.181 11.8803 217.011 11.26 216.755 10.6735C216.633 10.2946 216.393 9.96516 216.069 9.73449ZM215.093 25.2278C215.093 26.0224 215.093 26.9613 215.093 28.0448C215.822 27.9825 216.546 27.874 217.26 27.7198C217.26 26.6363 217.477 25.7334 217.513 25.0111L215.093 25.2278ZM207.004 13.5988C207.004 13.346 207.004 13.2376 207.22 13.2376H208.159C208.844 13.3412 209.512 13.5355 210.146 13.8155C210.306 13.8937 210.44 14.0179 210.53 14.1722C210.62 14.3264 210.662 14.504 210.651 14.6822C210.649 15.1177 210.496 15.539 210.218 15.874C210.119 16.0275 209.986 16.1561 209.83 16.25C209.673 16.3439 209.497 16.4006 209.315 16.4158C209.204 16.4086 209.096 16.3794 208.997 16.3298C208.898 16.2802 208.809 16.2112 208.737 16.1268C208.107 15.4116 207.584 14.6087 207.184 13.7432C207.184 13.7432 207.004 13.6349 207.004 13.5988ZM211.879 5.29234H212.782C214.624 5.29234 215.527 5.87018 215.527 7.02586C215.527 7.24255 215.527 7.38701 215.13 7.42312C213.396 7.78427 211.771 8.03708 210.254 8.21765L207.907 8.43434C207.13 8.44794 206.358 8.3131 205.631 8.03708C205.053 7.78427 204.765 7.49535 204.765 7.20643C204.765 6.91751 204.765 6.59248 205.09 6.55636C207.374 6.25644 209.64 5.83449 211.879 5.29234ZM202.02 11.143C202.02 10.8902 202.417 10.7457 203.175 10.7457C203.786 10.7534 204.392 10.8383 204.981 10.9985C205.831 10.9568 206.676 10.8481 207.509 10.6735C208.838 10.3029 210.141 9.84439 211.41 9.3011C211.726 9.10013 212.084 8.97641 212.457 8.93995C213.16 9.07307 213.841 9.30405 214.479 9.62614C215.455 10.1679 215.96 10.6735 215.96 11.0707C215.96 11.468 215.96 11.3597 215.563 11.6125C215.063 11.9073 214.7 12.3875 214.552 12.9487C214.279 14.2671 213.83 15.5427 213.215 16.7408C213.131 16.867 213.019 16.9719 212.887 17.0472C212.756 17.1224 212.608 17.1659 212.457 17.1742C212.457 17.1742 212.168 17.1742 212.024 16.813C212.001 16.5005 212.001 16.1866 212.024 15.874C212.024 15.874 212.024 15.0795 212.024 13.9961C212.024 12.9126 212.024 12.2625 212.024 12.082C212.036 11.9938 212.027 11.904 211.999 11.8197C211.97 11.7354 211.923 11.6588 211.86 11.5959C211.797 11.533 211.72 11.4855 211.636 11.457C211.551 11.4286 211.462 11.42 211.374 11.4319C208.701 11.8653 206.895 12.1181 205.92 12.1903L206.426 16.8853C206.426 17.6437 206.029 18.0409 205.415 18.0409C205.206 18.044 204.998 18.0039 204.806 17.9231C204.613 17.8423 204.439 17.7226 204.295 17.5714C203.97 17.2825 203.862 17.0658 203.862 16.8853C203.492 15.9632 203.272 14.9877 203.212 13.9961C203.147 13.334 203.014 12.6805 202.814 12.0458C202.626 11.6854 202.353 11.3756 202.02 11.143ZM214.154 15.8018C214.154 15.8018 214.154 15.5129 214.552 15.4768C215.178 15.5001 215.797 15.6095 216.394 15.8018C216.907 15.9069 217.389 16.1294 217.802 16.4519C217.913 16.5507 218 16.6737 218.057 16.8114C218.113 16.9492 218.137 17.0979 218.127 17.2464C218.168 17.5581 218.168 17.8737 218.127 18.1854L222.28 17.3548H223.833C224.474 17.3651 225.094 17.5803 225.603 17.9687C225.877 18.131 226.102 18.3643 226.255 18.644C226.407 18.9237 226.482 19.2394 226.47 19.5578C226.47 19.9189 226.47 20.0995 225.964 20.0995C224.05 20.0995 222.353 20.0995 220.583 20.0995C221.341 20.4968 221.739 20.894 221.739 21.2191C221.739 21.5441 221.739 21.2191 221.522 21.2191C221.35 21.4837 221.228 21.7774 221.161 22.0858L222.533 21.9775C223.14 21.6556 223.801 21.4475 224.483 21.3635C225.282 21.5556 226.057 21.8342 226.795 22.1942C228.023 22.8804 228.637 23.4582 228.637 23.9638C228.637 24.4694 228.637 24.2888 228.095 24.5055C227.553 24.7222 226.831 25.3001 226.722 25.7696C226.37 27.0899 225.743 28.3207 224.881 29.3811C224.645 29.6393 224.325 29.8056 223.978 29.8505C223.84 29.843 223.708 29.7942 223.598 29.7105C223.489 29.6267 223.407 29.5119 223.364 29.3811C220.413 29.4216 217.469 29.6629 214.552 30.1034C211.951 30.5006 210.362 30.7173 209.785 30.7173C209.598 30.6999 209.418 30.6425 209.256 30.549C209.094 30.4555 208.954 30.3281 208.846 30.1756C208.629 29.9252 208.513 29.6035 208.521 29.2727C208.521 29.2727 208.52 28.9838 208.846 28.9838C210.188 28.9431 211.526 28.8225 212.854 28.6226C212.854 27.4308 212.854 26.4557 212.638 25.6973H211.157C210.705 25.6837 210.262 25.5729 209.857 25.3723C209.351 25.1556 209.062 24.9389 209.062 24.7222C209.31 24.4145 209.653 24.1984 210.037 24.1083H212.493C212.493 23.4943 212.493 23.097 212.493 22.9165C212.314 22.5789 212.096 22.2637 211.843 21.9775C211.71 21.853 211.621 21.688 211.59 21.508C211.59 21.2913 211.59 21.1829 212.06 21.1829C212.73 21.1858 213.392 21.3208 214.01 21.5802C214.949 21.8691 215.418 22.1219 215.418 22.4109C215.409 22.531 215.409 22.6518 215.418 22.772C215.387 23.06 215.387 23.3507 215.418 23.6388H215.744L217.802 23.2054C217.818 22.9649 217.818 22.7236 217.802 22.4831C217.731 21.7377 217.548 21.0073 217.26 20.3162L215.238 20.569C213.757 20.569 212.096 20.9663 210.29 21.3274C210.002 21.3582 209.711 21.3582 209.423 21.3274C209.423 22.3386 209.207 23.2776 209.062 24.2166C209.075 24.2449 209.082 24.2757 209.082 24.3069C209.082 24.3381 209.075 24.3689 209.062 24.3972C208.737 26.6077 208.254 28.7922 207.618 30.934H207.87C208.744 30.9911 209.594 31.2376 210.362 31.6563C211.265 32.0174 211.699 32.3786 211.699 32.8481C211.713 32.9801 211.713 33.1133 211.699 33.2454L212.421 32.9203C212.798 32.8029 213.185 32.7184 213.577 32.6675C214.949 32.6675 215.671 33.137 215.671 33.9315C215.671 34.7261 215.418 34.401 214.949 34.4372L212.818 34.7622C212.314 34.8124 211.806 34.8124 211.301 34.7622C211.085 35.7511 210.929 36.7521 210.832 37.7597C212.638 37.1097 214.191 36.6041 215.527 36.1707C215.803 36.1387 216.081 36.1387 216.357 36.1707C216.357 36.1707 216.357 36.1707 216.357 36.4957C216.292 36.7602 216.169 37.0069 215.996 37.218C213.588 38.6524 211.294 40.2703 209.134 42.0574C208.999 42.1627 208.836 42.2255 208.665 42.238C208.357 42.2214 208.057 42.1347 207.788 41.9845C207.519 41.8343 207.288 41.6245 207.112 41.3712C206.844 40.9852 206.614 40.574 206.426 40.1433C206.426 39.8183 206.426 39.6016 206.606 39.4933C207.134 39.1051 207.546 38.5807 207.798 37.9764C208.037 36.4114 208.109 34.8256 208.015 33.2454C208.027 32.988 207.981 32.7314 207.881 32.494C207.781 32.2566 207.629 32.0444 207.437 31.873C207.37 32.1358 207.273 32.3903 207.148 32.6314C206.159 35.0338 204.834 37.2834 203.212 39.3127C201.545 41.09 199.576 42.5573 197.397 43.6465C197.134 43.6872 196.866 43.6872 196.603 43.6465C197.988 42.2697 199.201 40.7295 200.214 39.0599C202.01 36.4598 203.331 33.5619 204.114 30.5006C204.854 27.7181 205.255 24.8562 205.306 21.9775C205.375 21.3483 205.236 20.7139 204.909 20.1717C204.738 19.9331 204.615 19.6632 204.548 19.3772C204.548 19.1605 204.765 19.0522 205.09 19.0522C206.136 19.0986 207.176 19.2437 208.195 19.4855C208.445 19.4271 208.704 19.4271 208.954 19.4855C211.301 19.1966 213.432 18.9077 215.274 18.6188H215.816C215.589 18.3461 215.384 18.0563 215.202 17.752C214.726 17.1787 214.369 16.5155 214.154 15.8018Z" fill="#231815"/>
<path d="M263.379 12.3349C263.379 12.0099 263.379 11.8293 263.74 11.8293H265.185C266.165 11.9256 267.132 12.1192 268.074 12.4071C268.314 12.4746 268.526 12.6154 268.681 12.8097C268.837 13.004 268.927 13.2421 268.941 13.4906C268.918 14.1409 268.676 14.7644 268.255 15.2602C268.092 15.4763 267.886 15.6557 267.65 15.7864C267.413 15.9171 267.152 15.9963 266.882 16.0186C266.557 16.0178 266.245 15.8879 266.015 15.6575C265.066 14.7556 264.251 13.7217 263.596 12.5877C263.596 12.5877 263.379 12.4071 263.379 12.3349ZM263.379 18.9801C263.379 18.5828 263.379 18.4022 263.704 18.4022C264.197 18.3572 264.692 18.3572 265.185 18.4022C266.205 18.4901 267.219 18.647 268.218 18.8717C268.796 19.0884 269.085 19.3412 269.085 19.6662C269.076 20.3302 268.833 20.9698 268.399 21.472C268.244 21.7015 268.041 21.8946 267.804 22.038C267.567 22.1814 267.302 22.2717 267.027 22.3026C266.834 22.3241 266.638 22.3064 266.452 22.2506C266.266 22.1947 266.093 22.1019 265.943 21.9776C264.985 21.1629 264.135 20.2283 263.415 19.1967L263.379 18.9801ZM276.019 23.1333C276.885 22.9367 277.768 22.8278 278.656 22.8082C279.538 22.8093 280.414 22.9432 281.256 23.2055C282.412 23.6389 282.99 24.1084 282.99 24.5418C282.99 24.9751 282.773 25.1557 282.376 25.5891C282.187 25.7967 281.959 25.9645 281.705 26.0823C281.45 26.2002 281.175 26.2658 280.895 26.2753C278.764 26.2753 276.85 26.2753 275.153 26.2753C275.168 31.3979 274.818 36.5152 274.105 41.5881C273.708 43.0688 273.166 43.8272 272.408 43.8272C271.649 43.8272 271.649 43.5021 271.649 42.8521C271.649 41.2269 271.397 35.6291 271.36 26.492H270.241C268.082 26.7405 265.946 27.1509 263.849 27.7199C263.682 27.7572 263.509 27.7572 263.343 27.7199C262.557 27.6043 261.812 27.2939 261.176 26.817C260.418 26.3114 260.056 25.9864 260.056 25.8058C260.056 25.6252 260.056 25.4085 260.345 25.4085L265.113 24.7223L269.374 24.2167L271.433 24.1445V13.4906C271.548 11.8288 271.402 10.1592 270.999 8.54282C270.918 7.78818 270.644 7.06702 270.205 6.44815C270.205 6.01477 269.988 5.79808 269.988 5.76196C269.988 5.72585 270.313 5.00355 270.891 5.00355C271.203 4.96268 271.518 4.96268 271.83 5.00355L274.864 5.43693C276.055 5.43693 276.669 6.01477 276.669 6.59261C276.641 7.08424 276.478 7.55871 276.2 7.96498C275.454 9.46171 275.165 11.1447 275.369 12.8044C275.369 16.6687 275.369 20.0274 275.369 23.1694L276.019 23.1333ZM255.325 6.73707C255.325 6.73707 255.325 6.73707 255.723 6.73707C256.854 6.95364 257.948 7.33063 258.973 7.85663C260.273 8.61505 260.923 9.229 260.923 9.73461C260.923 10.2402 260.923 10.1319 260.382 10.2402C258.937 10.7097 257.998 10.9625 257.565 11.0709C257.131 11.1792 256.084 11.4681 255 11.8293H254.495L255.578 12.2988C256.698 12.8405 257.276 13.4545 257.276 14.1045C257.235 14.3419 257.136 14.5654 256.987 14.7546L256.662 16.8493L258.251 16.5242H259.334C260.995 16.5242 261.826 17.4271 261.826 19.0162C261.826 19.269 261.321 19.4134 260.273 19.4496C258.928 19.4943 257.588 19.6392 256.264 19.8829C256.264 20.6052 256.264 21.2553 256.048 21.9054L259.045 22.2304C259.474 22.3133 259.888 22.4593 260.273 22.6638C260.546 23.2036 260.706 23.7935 260.743 24.3973C260.767 24.5594 260.753 24.7251 260.702 24.8808C260.651 25.0366 260.564 25.1781 260.448 25.2941C260.332 25.41 260.19 25.4971 260.034 25.5483C259.879 25.5996 259.713 25.6136 259.551 25.5891C259.086 25.6329 258.617 25.5712 258.179 25.4085C257.751 25.056 257.352 24.6695 256.987 24.2528C256.726 23.9149 256.436 23.6006 256.12 23.3139C256.12 24 256.12 24.6501 256.12 25.228L256.481 37.7599C256.408 38.4385 256.071 39.0612 255.542 39.4934C255.448 39.7772 255.269 40.0257 255.031 40.2062C254.792 40.3867 254.505 40.4907 254.206 40.5046C253.556 40.5046 252.978 39.999 252.545 39.0239C252.094 38.3258 251.867 37.5068 251.894 36.6764C252.345 35.1479 252.695 33.5917 252.942 32.0176C253.341 29.7778 253.486 27.5002 253.375 25.228V24.3973C252.646 25.6595 251.825 26.8665 250.919 28.0088C249.762 29.3979 248.413 30.6141 246.911 31.6203C245.508 32.5109 243.989 33.2037 242.396 33.6789V33.2816C243.082 32.776 243.769 32.2343 244.383 31.6925C245.686 30.4238 246.893 29.0597 247.994 27.6115C249.489 25.7344 250.796 23.7142 251.894 21.5803C252.053 21.311 252.198 21.0338 252.328 20.7497C250.739 21.0747 248.716 21.5442 246.838 22.1221C246.585 22.2314 246.318 22.3043 246.044 22.3388C245.336 22.1278 244.674 21.7847 244.094 21.3275C242.974 20.4969 242.396 19.7385 242.396 19.0523C242.396 19.0523 242.396 19.0523 242.757 19.0523C244.226 18.9113 245.686 18.6822 247.127 18.3661C248.644 18.3661 250.739 17.8966 253.159 17.4632C253.141 16.3862 253.045 15.3118 252.87 14.249C252.668 13.6151 252.389 13.0085 252.039 12.4432C250.929 12.8224 249.777 13.065 248.608 13.1655C247.777 13.1655 247.344 13.1655 247.344 12.7683C249.035 12.13 250.666 11.3445 252.22 10.4208C253.096 9.89257 253.867 9.20691 254.495 8.39836C254.876 7.90342 255.158 7.33927 255.325 6.73707Z" fill="#231815"/>
<path d="M320.332 13.9241C320.825 13.8815 321.32 13.8815 321.813 13.9241C322.528 13.9602 323.212 14.2262 323.763 14.6825C324.076 14.8674 324.335 15.1319 324.512 15.449C324.69 15.7662 324.78 16.1248 324.774 16.4882C324.774 16.7772 324.774 16.8855 324.197 16.8855C321.465 16.866 318.736 17.0592 316.035 17.4633C316.035 19.1246 316.035 21.0748 315.782 23.1334C316.682 22.8284 317.552 22.4415 318.382 21.9777C318.669 21.9285 318.962 21.9285 319.249 21.9777C320.069 22.0639 320.872 22.2708 321.632 22.5917C322.933 23.2658 323.583 23.8798 323.583 24.4335C323.583 24.4335 323.583 24.6863 323.294 24.8669C322.147 25.8672 321.224 27.0978 320.585 28.4784C319.997 29.8259 319.271 31.1089 318.418 32.3066C317.987 32.8577 317.503 33.3657 316.974 33.8234C320.678 36.2323 324.735 38.0479 329 39.2046C329 39.5657 328.639 39.7824 327.953 39.8546C323.583 40.4686 320.982 40.7575 320.26 40.7575C319.913 40.7865 319.564 40.7365 319.238 40.6114C318.913 40.4864 318.62 40.2894 318.382 40.0352C317.19 38.6628 315.926 37.1099 314.771 35.3764C313.828 35.9958 312.851 36.5625 311.845 37.0738C310.526 37.655 309.161 38.1261 307.764 38.4823C306.738 38.7493 305.683 38.8948 304.622 38.9157C304.37 38.9157 304.225 38.9157 304.225 38.699L304.983 38.4823L307.114 37.7239C308.444 37.1732 309.735 36.5338 310.979 35.8098C311.903 35.1998 312.773 34.5111 313.579 33.7512C312.965 32.8844 312.279 31.9455 311.593 30.9342C310.927 29.8777 310.039 28.9782 308.992 28.2978C308.894 28.298 308.797 28.2782 308.707 28.2396C308.617 28.2011 308.536 28.1446 308.468 28.0737C308.401 28.0027 308.348 27.9188 308.314 27.8269C308.28 27.7351 308.265 27.6373 308.27 27.5394C308.27 27.5394 308.667 27.3589 309.462 27.3589C310.06 27.3562 310.647 27.5186 311.159 27.8283C311.872 28.3607 312.505 28.9932 313.037 29.7063C313.688 30.5851 314.413 31.4067 315.204 32.1621C315.559 31.7956 315.863 31.3825 316.107 30.9342C316.869 29.6379 317.475 28.2559 317.913 26.8171C318.051 26.421 318.136 26.008 318.165 25.5892C318.165 25.0114 318.165 24.7586 317.624 24.7586C315.769 25.1091 313.936 25.5673 312.134 26.1309C311.49 26.3349 310.823 26.4563 310.148 26.4921C309.802 26.4676 309.465 26.3753 309.155 26.2204C308.845 26.0654 308.569 25.851 308.342 25.5892C307.764 25.0836 307.511 24.6863 307.511 24.3974C307.511 24.1085 307.511 24.2168 307.873 24.2168C309.301 24.2252 310.727 24.1043 312.134 23.8557C312.279 21.5684 312.387 19.5821 312.459 17.8967C311.737 17.8967 310.979 18.2579 310.148 18.4746C309.815 18.6677 309.446 18.7906 309.064 18.8357C308.506 18.7273 307.984 18.4788 307.548 18.1134C306.97 17.7523 306.681 17.4633 306.681 17.2466C306.681 16.9938 306.681 16.8855 306.861 16.8855L312.604 15.8382C312.776 13.4938 312.776 11.1401 312.604 8.79574C312.452 8.13911 312.209 7.50699 311.881 6.91776C311.579 6.59768 311.378 6.19572 311.304 5.76208C311.304 5.25647 311.592 5.00366 312.206 5.00366C313.23 5.00725 314.236 5.26805 315.132 5.76208C316.504 6.23157 317.226 6.66495 317.226 7.09833C317.226 7.53171 317.226 7.67617 317.01 8.03732C316.465 10.334 316.174 12.6835 316.143 15.0436C317.551 14.7547 318.924 14.3213 320.332 13.9241ZM302.275 15.8743C302.48 15.7423 302.717 15.6675 302.961 15.6576C303.403 15.7106 303.838 15.8074 304.261 15.9465C304.983 16.4521 305.345 16.8855 305.345 17.2466C305.392 17.4729 305.392 17.7066 305.345 17.9328C305.306 18.0471 305.24 18.1499 305.151 18.2319C305.063 18.3139 304.956 18.3725 304.839 18.4023C303.936 18.6913 303.069 18.9441 302.166 19.1607V19.5219C302.166 21.0628 302.166 22.5435 302.166 23.964L302.853 23.6029C303.483 23.171 304.178 22.8419 304.911 22.6278C304.911 22.6278 304.911 22.8084 304.911 23.1334C304.911 23.4584 304.911 23.5307 304.442 23.8196L302.058 25.9865C302.225 29.6163 302.599 33.2337 303.178 36.821C303.125 38.155 302.615 39.4302 301.733 40.4325C301.221 41.081 300.488 41.5182 299.675 41.6604C299.345 41.6605 299.023 41.5555 298.757 41.3607C298.491 41.1659 298.294 40.8914 298.194 40.5769C296.997 38.6513 295.511 36.9216 293.788 35.4486C293.788 35.1597 293.896 35.0152 294.113 35.0152C295.237 35.6375 296.458 36.0648 297.724 36.2793C298.013 36.2793 298.158 35.9903 298.266 35.4847C298.586 33.7572 298.755 32.005 298.772 30.2481V28.6951C298.577 28.7936 298.396 28.9148 298.23 29.0563C296.761 30.3082 294.992 31.8973 292.921 33.8234C292.632 34.1846 292.379 34.329 292.199 34.329C292.018 34.329 291.188 33.8234 290.321 32.8122C289.79 32.202 289.417 31.4701 289.237 30.6814C289.237 30.2481 289.237 30.0314 289.635 30.0314C290.345 29.9287 291.031 29.6961 291.657 29.3452C293.463 28.5506 295.882 27.3227 298.88 25.7337C298.88 23.7835 298.88 21.7971 298.88 19.7747C297.839 20.0386 296.774 20.196 295.702 20.2442C295.122 20.3195 294.532 20.2784 293.968 20.1234C293.404 19.9684 292.876 19.7025 292.415 19.3413C292.054 18.9441 291.91 18.6913 291.91 18.5468C291.91 18.4023 291.91 18.1495 292.235 18.1495C294.51 18.0243 296.77 17.698 298.988 17.1744H299.205C299.205 15.0436 299.205 13.1657 298.952 11.5405C298.883 9.97924 298.476 8.45155 297.76 7.06222C297.739 6.91854 297.739 6.77252 297.76 6.62884C297.76 6.15934 298.085 5.94265 298.772 5.94265C300.03 5.98385 301.264 6.30459 302.383 6.88164C303.467 7.24279 304.008 7.7484 304.008 8.36236C303.981 8.54091 303.92 8.71257 303.828 8.86797C303.218 10.3525 302.852 11.9257 302.744 13.5268C302.744 14.3574 302.744 15.152 302.744 15.9465L302.275 15.8743Z" fill="#231815"/>
<path d="M160.56 64.0873C160.67 64.0699 160.782 64.0781 160.888 64.1113C160.994 64.1445 161.091 64.2018 161.172 64.2787C161.252 64.3556 161.314 64.4501 161.352 64.5547C161.39 64.6593 161.403 64.7712 161.39 64.8818C161.39 65.568 161.101 65.893 160.56 65.893H154.24C154.1 65.8955 153.963 65.8553 153.847 65.7779C153.731 65.7004 153.641 65.5894 153.59 65.4596C153.414 65.1652 153.327 64.827 153.337 64.4845V51.6998C153.337 50.8331 153.626 50.4358 154.203 50.4358C154.781 50.4358 155.07 50.8331 155.07 51.6998V64.0873H160.56Z" fill="#231815"/>
<path d="M170.672 59.0682C170.682 58.2878 170.383 57.535 169.841 56.9735C169.629 56.6964 169.355 56.4719 169.042 56.3173C168.729 56.1628 168.385 56.0825 168.035 56.0825C167.686 56.0825 167.342 56.1628 167.029 56.3173C166.715 56.4719 166.442 56.6964 166.23 56.9735C165.717 57.5723 165.368 58.2941 165.218 59.0682H170.672ZM171.033 55.9984C171.842 57.1077 172.262 58.4539 172.225 59.8266C172.225 60.4767 171.936 60.8017 171.286 60.8017H165.255C165.32 61.7389 165.645 62.6393 166.194 63.402C166.402 63.723 166.685 63.9891 167.018 64.1777C167.351 64.3663 167.725 64.4718 168.108 64.4854C168.389 64.4901 168.668 64.4382 168.928 64.3327C169.189 64.2272 169.426 64.0704 169.624 63.8715C169.986 63.4742 170.419 63.0408 170.78 62.6074C170.927 62.4324 171.132 62.3169 171.358 62.2824C171.827 62.2824 172.08 62.6074 172.08 63.2575C172.08 63.9076 171.683 64.3049 170.925 65.0633C170.574 65.4625 170.14 65.7795 169.653 65.9918C169.166 66.204 168.639 66.3063 168.108 66.2912C167.466 66.3139 166.83 66.1653 166.265 65.8606C165.7 65.5559 165.227 65.1062 164.893 64.5577C164.034 63.321 163.602 61.837 163.665 60.3322C163.603 58.8162 164.033 57.3207 164.893 56.0706C165.231 55.5288 165.707 55.0863 166.271 54.7881C166.836 54.4899 167.47 54.3467 168.108 54.3732C168.69 54.388 169.26 54.5435 169.77 54.8265C170.279 55.1095 170.713 55.5116 171.033 55.9984Z" fill="#231815"/>
<path d="M179.412 64.0159C179.856 63.5583 180.244 63.049 180.567 62.4991V59.8265C179.794 60.2821 178.97 60.6458 178.112 60.91C177.625 61.0111 177.169 61.221 176.775 61.524C176.558 61.7178 176.387 61.9579 176.274 62.2267C176.162 62.4954 176.111 62.7859 176.125 63.0769C176.121 63.3159 176.174 63.5525 176.281 63.7663C176.388 63.9801 176.545 64.1649 176.739 64.3048C177.072 64.5576 177.477 64.6969 177.895 64.7021C178.181 64.6974 178.463 64.6342 178.724 64.5161C178.985 64.3981 179.219 64.2279 179.412 64.0159ZM182.481 64.4854C182.616 64.5863 182.725 64.7172 182.8 64.8676C182.876 65.0181 182.915 65.1839 182.915 65.3521C182.915 65.9661 182.59 66.2911 181.904 66.2911C181.217 66.2911 180.748 65.6772 180.495 64.4854C180.239 64.9085 179.898 65.2745 179.494 65.5605C179.091 65.8465 178.632 66.0465 178.148 66.1481C177.664 66.2497 177.164 66.2507 176.679 66.1511C176.195 66.0514 175.736 65.8532 175.331 65.5688C175.007 65.2433 174.756 64.853 174.594 64.4234C174.432 63.9939 174.363 63.535 174.392 63.0769C174.359 62.5858 174.443 62.0939 174.638 61.6418C174.833 61.1897 175.132 60.7903 175.511 60.4766C176.203 59.9663 177.009 59.6317 177.859 59.5015C178.805 59.2931 179.716 58.9527 180.567 58.4903V58.093C180.579 57.813 180.526 57.5341 180.413 57.2775C180.301 57.0209 180.131 56.7934 179.917 56.6123C179.51 56.3131 179.014 56.1603 178.509 56.1789C178.227 56.1699 177.947 56.2199 177.685 56.3257C177.424 56.4314 177.188 56.5905 176.992 56.7929C176.718 57.1439 176.477 57.5186 176.27 57.9125C176.053 58.3097 175.8 58.4903 175.511 58.4903C175.222 58.4903 174.789 58.1653 174.789 57.5513C174.821 56.7866 175.144 56.063 175.692 55.5289C176.049 55.1427 176.486 54.8393 176.973 54.6396C177.459 54.44 177.983 54.3491 178.509 54.3732C178.971 54.3631 179.431 54.4476 179.859 54.6215C180.288 54.7954 180.676 55.055 181.001 55.3844C181.367 55.7809 181.649 56.248 181.83 56.7572C182.01 57.2664 182.084 57.8069 182.048 58.3458V63.4742C182.031 63.6655 182.061 63.8581 182.137 64.0346C182.212 64.2112 182.331 64.3661 182.481 64.4854Z" fill="#231815"/>
<path d="M192.594 64.0873C193.171 64.0873 193.424 64.3762 193.424 64.8818C193.424 65.3874 193.171 65.893 192.594 65.893H186.274C186.135 65.8907 186 65.8486 185.885 65.7718C185.77 65.695 185.679 65.5866 185.623 65.4596C185.448 65.1652 185.361 64.827 185.371 64.4845V51.6998C185.371 50.8331 185.66 50.4358 186.237 50.4358C186.815 50.4358 187.104 50.8331 187.104 51.6998V64.0873H192.594Z" fill="#231815"/>
<path d="M202.814 59.0674C202.834 58.2921 202.549 57.54 202.02 56.9727C201.565 56.4949 200.945 56.2103 200.286 56.1782C199.958 56.1863 199.636 56.2609 199.338 56.3975C199.04 56.5341 198.773 56.7298 198.553 56.9727C198.015 57.5595 197.652 58.2851 197.505 59.0674H202.814ZM203.212 55.9976C204.011 57.1102 204.417 58.4569 204.367 59.8258C204.367 60.4759 204.078 60.8009 203.464 60.8009H197.289C197.348 61.7453 197.688 62.6504 198.264 63.4012C198.468 63.7266 198.749 63.996 199.084 64.1852C199.418 64.3744 199.794 64.4773 200.178 64.4847C200.453 64.4886 200.727 64.4362 200.982 64.3306C201.236 64.2251 201.467 64.0686 201.659 63.8707L202.85 62.6067C202.986 62.4366 203.178 62.3212 203.392 62.2816C203.862 62.2816 204.114 62.6067 204.114 63.2568C203.949 63.965 203.556 64.5993 202.995 65.0625C202.644 65.4617 202.21 65.7788 201.723 65.991C201.237 66.2033 200.709 66.3055 200.178 66.2904C199.534 66.2981 198.899 66.1433 198.33 65.8403C197.762 65.5373 197.28 65.0959 196.927 64.5569C196.05 63.3232 195.583 61.8451 195.591 60.3314C195.544 58.8173 195.973 57.3265 196.819 56.0699C197.176 55.5376 197.66 55.1032 198.228 54.8067C198.796 54.5101 199.429 54.3608 200.069 54.3725C200.67 54.3696 201.263 54.5167 201.792 54.8005C202.322 55.0842 202.773 55.4957 203.103 55.9976H203.212Z" fill="#231815"/>
<path d="M211.482 64.0154C211.915 63.5482 212.302 63.0402 212.637 62.4986V59.8261C211.86 60.2751 211.037 60.6384 210.182 60.9095C209.682 61.0041 209.212 61.2144 208.809 61.5235C208.602 61.7237 208.44 61.9658 208.335 62.2336C208.229 62.5015 208.181 62.7888 208.195 63.0764C208.184 63.3128 208.23 63.5484 208.331 63.7625C208.432 63.9766 208.584 64.1627 208.773 64.3044C209.119 64.5577 209.536 64.6966 209.965 64.7016C210.54 64.6763 211.083 64.4306 211.482 64.0154ZM214.552 64.4849C214.686 64.5859 214.795 64.7167 214.871 64.8672C214.946 65.0176 214.985 65.1835 214.985 65.3517C214.985 65.9656 214.624 66.2907 213.938 66.2907C213.251 66.2907 212.818 65.6767 212.565 64.4849C212.263 65.0103 211.833 65.451 211.315 65.7666C210.798 66.0822 210.209 66.2624 209.604 66.2907C208.806 66.3289 208.021 66.0718 207.401 65.5684C207.071 65.2471 206.816 64.8574 206.654 64.4268C206.492 63.9962 206.426 63.5352 206.462 63.0764C206.43 62.5889 206.512 62.1007 206.7 61.6497C206.888 61.1987 207.177 60.7972 207.545 60.4762C208.245 59.9798 209.047 59.6466 209.893 59.5011C210.852 59.2983 211.776 58.9577 212.637 58.4898V58.0926C212.65 57.8088 212.595 57.5261 212.475 57.2684C212.356 57.0107 212.176 56.7855 211.951 56.6119C211.557 56.3153 211.072 56.1624 210.579 56.1785C210.292 56.1689 210.006 56.2184 209.739 56.324C209.471 56.4296 209.229 56.5891 209.026 56.7924C208.769 57.1477 208.54 57.522 208.34 57.912C208.123 58.3093 207.87 58.4898 207.581 58.4898C207.292 58.4898 206.823 58.1648 206.823 57.5509C206.872 56.7903 207.192 56.0725 207.726 55.5284C208.087 55.1375 208.53 54.8312 209.023 54.6314C209.516 54.4316 210.048 54.3433 210.579 54.3727C211.035 54.3676 211.488 54.4545 211.91 54.6282C212.332 54.802 212.714 55.059 213.035 55.384C213.401 55.7805 213.683 56.2476 213.864 56.7568C214.044 57.2659 214.118 57.8065 214.082 58.3454V63.4737C214.072 63.6678 214.109 63.8614 214.191 64.0376C214.273 64.2139 214.397 64.3674 214.552 64.4849Z" fill="#231815"/>
<path d="M233.44 50.8693C233.945 50.8693 234.198 51.1582 234.198 51.736C234.198 52.3139 233.945 52.6389 233.44 52.6389H230.153V65.3153C230.153 66.0015 229.864 66.3626 229.25 66.3626C228.636 66.3626 228.384 66.0015 228.384 65.3153V52.6389H225.205C224.664 52.6389 224.375 52.3139 224.375 51.736C224.358 51.6214 224.367 51.5043 224.402 51.3938C224.437 51.2833 224.497 51.1824 224.577 51.0987C224.658 51.0149 224.756 50.9508 224.865 50.911C224.974 50.8712 225.09 50.857 225.205 50.8693H233.44Z" fill="#231815"/>
<path d="M243.48 59.0682C243.49 58.2878 243.191 57.535 242.649 56.9735C242.437 56.6964 242.163 56.4719 241.85 56.3173C241.537 56.1628 241.192 56.0825 240.843 56.0825C240.494 56.0825 240.15 56.1628 239.836 56.3173C239.523 56.4719 239.25 56.6964 239.038 56.9735C238.525 57.5723 238.176 58.2941 238.026 59.0682H243.48ZM243.877 55.9984C244.659 57.1192 245.064 58.4601 245.033 59.8266C245.033 60.4767 244.744 60.8017 244.094 60.8017H238.062C238.128 61.7389 238.453 62.6393 239.001 63.402C239.212 63.7209 239.496 63.9854 239.828 64.1737C240.161 64.3621 240.534 64.4689 240.916 64.4854C241.215 64.5077 241.515 64.4643 241.796 64.3583C242.077 64.2522 242.331 64.0861 242.541 63.8715C242.938 63.4742 243.335 63.0408 243.696 62.6074C243.843 62.4324 244.049 62.3169 244.274 62.2824C244.744 62.2824 244.997 62.6074 244.997 63.2575C244.997 63.9076 244.599 64.3049 243.841 65.0633C243.49 65.4625 243.056 65.7795 242.569 65.9918C242.083 66.204 241.555 66.3063 241.024 66.2912C240.386 66.2928 239.758 66.1351 239.197 65.8324C238.635 65.5297 238.159 65.0915 237.81 64.5577C236.95 63.321 236.519 61.837 236.582 60.3322C236.519 58.8162 236.95 57.3207 237.81 56.0706C238.148 55.5288 238.623 55.0863 239.188 54.7881C239.752 54.4899 240.386 54.3467 241.024 54.3732C241.594 54.3994 242.15 54.5603 242.646 54.8428C243.142 55.1253 243.564 55.5213 243.877 55.9984Z" fill="#231815"/>
<path d="M254.928 61.7042C255.361 61.7042 255.614 62.0292 255.614 62.6432C255.463 63.5043 255.031 64.2914 254.386 64.8823C254.061 65.3165 253.642 65.6718 253.161 65.9219C252.679 66.172 252.148 66.3104 251.605 66.3269C250.972 66.3194 250.351 66.1453 249.806 65.822C249.261 65.4987 248.81 65.0376 248.5 64.485C247.695 63.2648 247.279 61.8293 247.308 60.3679C247.269 58.9104 247.672 57.4751 248.463 56.2508C248.777 55.6929 249.233 55.2284 249.785 54.9048C250.337 54.5812 250.966 54.41 251.605 54.4089C252.505 54.4211 253.368 54.7689 254.025 55.384C254.383 55.6381 254.681 55.9666 254.899 56.3469C255.117 56.7272 255.25 57.1503 255.289 57.5871C255.289 58.1649 255.073 58.4538 254.567 58.4538C254.061 58.4538 254.134 58.2371 253.845 57.8399C253.588 57.4748 253.311 57.1251 253.014 56.7925C252.83 56.6067 252.61 56.4598 252.368 56.3605C252.126 56.2612 251.867 56.2116 251.605 56.2147C251.177 56.2242 250.759 56.3546 250.401 56.5911C250.044 56.8275 249.76 57.1602 249.583 57.5509C249.1 58.4105 248.851 59.3819 248.861 60.3679C248.843 61.3618 249.08 62.3437 249.547 63.221C249.738 63.6052 250.032 63.9296 250.394 64.1588C250.757 64.388 251.176 64.5134 251.605 64.5211C252.198 64.4957 252.757 64.2359 253.158 63.7988C253.514 63.3766 253.84 62.9301 254.134 62.4626C254.459 61.9209 254.711 61.7042 254.928 61.7042Z" fill="#231815"/>
<path d="M265.438 65.0985C265.438 65.893 265.149 66.2903 264.535 66.2903C263.921 66.2903 263.668 65.893 263.668 65.0985V59.7174C263.668 57.3699 263.018 56.1058 261.718 56.1058C261.252 56.0999 260.797 56.2443 260.419 56.5175C260.042 56.7907 259.763 57.1783 259.623 57.6227C259.6 57.8388 259.6 58.0567 259.623 58.2727V64.9901C259.623 65.7847 259.37 66.1819 258.865 66.1819C258.215 66.1819 257.854 65.7847 257.854 64.9901V51.5554C257.854 50.8331 258.142 50.4358 258.756 50.4358C259.37 50.4358 259.623 50.8331 259.623 51.5554V56.2503C259.888 55.7169 260.294 55.2663 260.797 54.9479C261.3 54.6295 261.881 54.4553 262.476 54.4446C263.01 54.441 263.533 54.602 263.972 54.9057C264.411 55.2094 264.747 55.6411 264.932 56.142C265.445 57.2739 265.68 58.5122 265.618 59.7535L265.438 65.0985Z" fill="#231815"/>
<path d="M275.044 65.3154C275.043 65.5949 274.94 65.8643 274.755 66.0739C274.69 66.1784 274.6 66.2646 274.493 66.3245C274.385 66.3843 274.264 66.4157 274.141 66.4157C274.018 66.4157 273.897 66.3843 273.79 66.3245C273.683 66.2646 273.592 66.1784 273.527 66.0739C273.353 65.8466 273.264 65.5656 273.275 65.2793V59.1398C273.308 58.4306 273.133 57.7271 272.769 57.1173C272.611 56.8582 272.388 56.6451 272.121 56.4994C271.855 56.3536 271.556 56.2803 271.252 56.2867C270.94 56.2849 270.631 56.3596 270.354 56.5044C270.077 56.6492 269.84 56.8597 269.663 57.1173C269.213 57.7067 268.983 58.4349 269.013 59.1759V65.3154C269.013 66.0377 268.724 66.435 268.146 66.435C267.568 66.435 267.279 66.0377 267.279 65.3154V55.9617C267.268 55.6695 267.343 55.3804 267.496 55.131C267.571 55.0264 267.668 54.9396 267.78 54.8772C267.893 54.8147 268.018 54.7781 268.146 54.7699C268.724 54.7699 269.013 55.3116 269.013 56.3589C269.251 55.7696 269.661 55.2654 270.189 54.9113C270.717 54.5572 271.339 54.3696 271.974 54.3726C272.445 54.4 272.9 54.5514 273.293 54.8114C273.687 55.0715 274.004 55.4309 274.214 55.8533C274.771 56.819 275.057 57.9167 275.044 59.0314V65.3154Z" fill="#231815"/>
<path d="M283.856 63.221C284.375 62.3531 284.649 61.3609 284.649 60.3499C284.649 59.3388 284.375 58.3466 283.856 57.4787C283.647 57.086 283.335 56.7575 282.953 56.5285C282.571 56.2995 282.135 56.1786 281.69 56.1786C281.244 56.1786 280.808 56.2995 280.426 56.5285C280.044 56.7575 279.732 57.086 279.523 57.4787C278.971 58.3253 278.693 59.3217 278.728 60.3318C278.681 61.3724 278.945 62.4035 279.487 63.2932C279.719 63.6742 280.049 63.9857 280.443 64.1953C280.837 64.405 281.28 64.505 281.726 64.485C282.162 64.4859 282.59 64.3689 282.965 64.1464C283.34 63.9239 283.648 63.6042 283.856 63.221ZM285.012 55.998C285.814 57.268 286.24 58.7393 286.24 60.2415C286.24 61.7437 285.814 63.2151 285.012 64.485C284.659 65.0122 284.18 65.4433 283.619 65.7395C283.058 66.0358 282.432 66.188 281.798 66.1824C281.147 66.2105 280.5 66.0767 279.914 65.7931C279.328 65.5094 278.821 65.0848 278.439 64.5573C277.635 63.2748 277.208 61.7915 277.208 60.2776C277.208 58.7637 277.635 57.2805 278.439 55.998C278.802 55.4608 279.292 55.0215 279.865 54.7191C280.438 54.4167 281.077 54.2605 281.726 54.2645C282.385 54.2656 283.033 54.4354 283.609 54.7578C284.184 55.0802 284.667 55.5444 285.012 56.1063V55.998Z" fill="#231815"/>
<path d="M293.86 64.0875C293.965 64.1008 294.066 64.1349 294.157 64.1877C294.249 64.2404 294.329 64.3109 294.393 64.395C294.457 64.4791 294.503 64.575 294.529 64.6772C294.556 64.7795 294.562 64.8859 294.546 64.9904C294.546 65.6044 294.293 65.8933 293.788 65.8933H289.021C288.515 65.8933 288.262 65.6044 288.262 64.9904C288.262 64.3765 288.515 64.0875 289.021 64.0875H290.718V52.603H289.924C289.66 52.6396 289.393 52.6396 289.129 52.603C289.009 52.6034 288.89 52.5788 288.78 52.5308C288.67 52.4828 288.571 52.4124 288.489 52.3241C288.408 52.2358 288.345 52.1315 288.306 52.0179C288.267 51.9043 288.252 51.7837 288.262 51.664C288.262 51.0861 288.587 50.7972 289.237 50.7972H290.935C291.142 50.7726 291.352 50.792 291.551 50.8543C291.75 50.9165 291.934 51.0201 292.09 51.1584C292.355 51.537 292.471 51.9999 292.415 52.4585V64.0514H293.102C293.355 64.0172 293.612 64.0294 293.86 64.0875Z" fill="#231815"/>
<path d="M303.286 63.2212C303.805 62.3533 304.078 61.3611 304.078 60.35C304.078 59.339 303.805 58.3468 303.286 57.4789C303.077 57.094 302.769 56.7711 302.395 56.5428C302.021 56.3145 301.593 56.189 301.155 56.1788C300.706 56.1837 300.267 56.3063 299.88 56.5345C299.493 56.7627 299.174 57.0883 298.952 57.4789C298.4 58.3255 298.123 59.3219 298.158 60.332C298.116 61.3673 298.366 62.3935 298.88 63.2934C299.124 63.6721 299.461 63.9809 299.86 64.1898C300.259 64.3988 300.705 64.5005 301.155 64.4852C301.591 64.4861 302.02 64.3691 302.395 64.1466C302.77 63.9241 303.078 63.6043 303.286 63.2212ZM304.442 55.9982C305.284 57.2415 305.702 58.7236 305.634 60.2236C305.681 61.7378 305.252 63.2286 304.406 64.4852C304.04 65.0085 303.554 65.4359 302.988 65.7314C302.422 66.0268 301.794 66.1816 301.155 66.1826C300.505 66.2107 299.857 66.0769 299.271 65.7932C298.685 65.5096 298.178 65.085 297.797 64.5574C296.992 63.275 296.565 61.7917 296.565 60.2778C296.565 58.7639 296.992 57.2807 297.797 55.9982C298.159 55.461 298.649 55.0217 299.222 54.7193C299.796 54.4169 300.435 54.2607 301.083 54.2647C301.754 54.2568 302.416 54.4222 303.004 54.7449C303.592 55.0675 304.088 55.5365 304.442 56.1065V55.9982Z" fill="#231815"/>
<path d="M313.615 62.498C313.97 61.6909 314.143 60.8154 314.121 59.9339C314.162 59.5618 314.162 59.1863 314.121 58.8143C313.759 57.3336 313.109 56.5752 312.17 56.5752C311.231 56.5752 310.328 57.3697 309.823 58.9588C309.696 59.3067 309.622 59.6721 309.606 60.0422C309.595 60.9231 309.806 61.7926 310.22 62.5703C310.352 62.9442 310.596 63.2681 310.919 63.4973C311.243 63.7264 311.629 63.8495 312.026 63.8495C312.422 63.8495 312.809 63.7264 313.132 63.4973C313.456 63.2681 313.7 62.9442 313.832 62.5703L313.615 62.498ZM315.89 64.8455C315.965 66.0004 315.59 67.1394 314.843 68.0236C314.494 68.4003 314.068 68.6983 313.595 68.8976C313.122 69.0968 312.612 69.1929 312.098 69.1793C311.289 69.1638 310.497 68.9532 309.787 68.5653C309.376 68.4259 309.018 68.1645 308.76 67.816C308.502 67.4675 308.356 67.0486 308.342 66.6151C308.338 66.4018 308.415 66.1949 308.559 66.0373C308.616 65.966 308.687 65.9068 308.768 65.8634C308.849 65.82 308.937 65.7932 309.028 65.7845C309.028 65.7845 309.606 66.0734 310.256 66.579C310.746 67.0741 311.403 67.3701 312.098 67.4097C312.419 67.436 312.742 67.3723 313.029 67.2255C313.316 67.0788 313.556 66.8549 313.723 66.579C314.033 65.9006 314.169 65.1561 314.121 64.4121C313.497 65.0397 312.685 65.4457 311.809 65.5678C311.223 65.5727 310.645 65.4255 310.132 65.1407C309.62 64.8559 309.19 64.4431 308.884 63.9426C308.184 62.7647 307.833 61.412 307.873 60.0422C307.873 58.7418 308.29 57.4757 309.064 56.4307C309.378 55.9651 309.796 55.5791 310.285 55.3032C310.774 55.0274 311.321 54.8693 311.881 54.8416C312.385 54.8371 312.876 54.9968 313.28 55.2967C313.684 55.5965 313.979 56.02 314.121 56.5029C314.04 56.1463 314.04 55.7761 314.121 55.4195C314.176 55.2772 314.277 55.1574 314.407 55.0789C314.538 55.0004 314.691 54.9678 314.843 54.9861C315.457 54.9861 315.746 55.4556 315.746 56.3946L315.89 64.8455Z" fill="#231815"/>
<path d="M325.352 54.4809C325.438 54.5573 325.506 54.6523 325.55 54.7587C325.593 54.8651 325.612 54.98 325.605 55.0948C325.629 55.3471 325.629 55.601 325.605 55.8532L321.596 67.1933C321.442 67.7491 321.106 68.2368 320.64 68.5775C320.175 68.9183 319.609 69.0923 319.032 69.0713C318.805 69.1042 318.574 69.0528 318.382 68.9269C318.205 68.7267 318.103 68.4715 318.093 68.2046C318.093 67.6267 318.31 67.2656 318.707 67.1572C319.053 67.1339 319.394 67.0609 319.718 66.9405C320.207 66.4321 320.588 65.8301 320.838 65.1709L319.032 59.8981C318.093 57.0089 317.624 55.4199 317.624 55.2032C317.624 54.9865 317.877 54.3003 318.346 54.3003C318.816 54.3003 319.068 54.5892 319.249 55.1309L321.669 62.6067L324.269 54.9504C324.269 54.517 324.63 54.3003 324.955 54.3003C325.102 54.3222 325.239 54.3848 325.352 54.4809Z" fill="#231815"/>
<path d="M120.364 18.3657L112.31 17.7517C113.155 15.6449 114.379 13.7108 115.922 12.0456C115.922 12.0456 120.472 7.24228 121.014 12.5512C121.085 14.5108 120.866 16.4701 120.364 18.3657ZM111.227 40.0347C111.227 40.0347 107.254 47.5105 108.229 38.3373C108.469 32.3967 109.464 26.5107 111.191 20.8215C113.791 21.0743 116.644 21.291 119.605 21.4716C117.567 27.9728 114.754 34.2053 111.227 40.0347ZM77.8564 38.3373C77.8564 38.3373 78.3982 19.6658 85.5128 12.2261C85.5128 12.2261 90.0994 7.42285 90.6412 12.7318C90.6412 12.7318 91.6163 21.5799 80.8179 40.0347C80.8179 40.0347 76.8813 47.2577 77.8564 38.1928V38.3373ZM47.9893 38.3373C47.9893 38.3373 48.5311 19.6658 55.6818 12.2261C55.6818 12.2261 60.2323 7.42285 60.774 12.7318C60.774 12.7318 61.7491 21.5799 50.9869 40.0347C51.1313 40.0347 47.0142 47.2577 47.9893 38.1928V38.3373ZM124.481 18.6185C124.698 17.7879 124.878 16.9211 125.095 16.0182C130.187 -13.1627 113.755 6.88113 112.455 8.03681C110.003 10.8184 107.916 13.9009 106.243 17.21L98.6948 16.3433L98.5142 19.3047L104.87 20.0631C100.75 30.3751 99.0449 41.4937 99.8866 52.5666C89.5577 71.6353 82.0097 61.7037 80.0233 59.1395C75.3645 52.2777 81.5041 45.2353 81.5041 45.2353C85.8017 39.3124 90.3161 34.4008 94.6138 16.0182C99.706 -13.1627 83.2737 6.88113 81.9736 8.03681C66.8053 25.0109 69.2972 51.5554 69.4055 52.7111C68.1469 55.109 66.6463 57.3719 64.9273 59.4646C61.3158 63.6178 58.4627 64.4123 56.0791 63.8345C55.0988 63.5672 54.1791 63.1135 53.3705 62.4982C52.1464 61.45 51.0764 60.2342 50.1923 58.8867C45.5696 52.0249 51.7092 44.9825 51.7092 44.9825C55.9707 39.0596 60.4851 34.148 64.7828 15.7654C69.875 -13.4155 53.4427 6.62832 52.1426 7.784C36.6853 25.5887 39.6468 52.7833 39.6468 52.7833C25.2008 63.6178 17.436 64.7374 17.436 64.7374C24.009 67.8794 39.9718 56.467 39.9718 56.467C43.0055 68.2766 48.206 70.913 48.206 70.913C57.307 77.7026 69.2972 59.1395 70.0917 57.9116C73.9199 68.9628 78.0731 70.913 78.0731 70.913C89.3771 78.75 99.7421 59.284 100.464 57.9839C101.719 63.0175 104.508 67.5361 108.446 70.913C118.269 78.6055 130.584 56.9365 130.584 56.9365V53.5778C119.75 73.2605 111.696 60.8008 110.432 59.1395C105.773 52.2777 111.913 45.2353 111.913 45.2353C117.558 38.3401 121.559 30.2507 123.614 21.5799C127.623 21.7605 131.74 21.8689 135.713 21.7966C135.661 20.8222 135.661 19.8457 135.713 18.8713C132.21 18.9074 128.309 18.7991 124.481 18.6185Z" fill="#E5006B"/>
<path d="M6.05958 68.1328C6.10316 68.7417 5.96203 69.3495 5.65464 69.8769C5.34725 70.4043 4.8879 70.8267 4.33663 71.0889C3.78536 71.3511 3.16782 71.4409 2.56471 71.3465C1.96161 71.2522 1.401 70.978 0.95616 70.56C0.511321 70.142 0.202946 69.5995 0.0713405 69.0034C-0.0602647 68.4073 -0.00897787 67.7853 0.218498 67.2189C0.445974 66.6524 0.839057 66.1677 1.34637 65.8282C1.85368 65.4887 2.45162 65.3101 3.06204 65.3158C3.82672 65.3144 4.56302 65.6053 5.12025 66.129C5.67748 66.6527 6.01352 67.3695 6.05958 68.1328Z" fill="#E5006B"/>
</svg>
